<svg width="79" height="114" fill="none" xmlns="http://www.w3.org/2000/svg"><g clip-path="url(#clip0_6050_30066)" fill="#754FFE"><path fill-rule="evenodd" clip-rule="evenodd" d="M5.003 64.541c-1.043.591-2.05.56-2.422.47-1.043 0-.438 4.441-.056 7.245l.056.415c.298 2.204.994 2.889 1.304 2.956h1.552c.2 0 .207.18.187.269 0 7.471 2.297 9.876 5.091 11.825 1.863.627 5.899 1.814 14.033 1.008 7.016-1.008 9.305-7.122 9.686-10.011.249-2.218.745-4.233 2.546-4.435 1.8.202 2.337 2.218 2.586 4.435.381 2.889 2.67 9.003 9.686 10.01 8.134.807 12.17-.38 14.033-1.007 2.794-1.949 5.091-4.354 5.091-11.825-.02-.09-.012-.269.186-.269h1.553c.31-.067 1.006-.752 1.304-2.956l.055-.41.001-.005c.382-2.804.987-7.245-.056-7.245-.373.09-1.379.121-2.422-.47-1.304-.739-12.667-3.026-23.408-.067-1.139.313-3.291 1.317-4.036 2.553-.746 1.236-3.372 1.68-4.573 1.747-1.2-.067-3.787-.51-4.532-1.747-.746-1.236-2.898-2.24-4.037-2.553-10.741-2.959-22.104-.672-23.408.067zm3.912 8.197c0-2.672 2.001-4.838 4.47-4.838h11.651c3.623 0 6.537 3.225 6.456 7.145l-.04 1.91c-.101 4.91-3.795 8.84-8.334 8.867l-6.586.04c-4.2.024-7.617-3.653-7.617-8.197v-4.927zm56.17 0c0-2.672-2.001-4.838-4.47-4.838H48.964c-3.623 0-6.537 3.225-6.456 7.145l.04 1.91c.101 4.91 3.795 8.84 8.334 8.867l6.586.04c4.2.024 7.617-3.653 7.617-8.197v-4.927z"/><path d="M2.331 45.88C-.079 54.925 4.426 59.73 6.98 61c.943-5.066 5.041-9.305 6.81-10.92 11.064 1.615 21.344.387 36.534-3.425 11.458-2.262 14.186 7.517 13.75 13.57 20.624-5.816 16.368-40.58 8.053-46.655 1.78 11.528-.35 16.564-1.637 17.64 1.244-3.963 1.506-13.052-.59-19.256C66.562 4.071 68.025 1.615 69.247 0c-3.34.172-12.78 2.92-23.833 13.57C34.361 24.22 26.71 27.614 24.265 27.98c4.295-1.603 12.571-8.422 16.172-11.631-7.202 4.135-18.79 4.975-29.856 11.954-13.723 8.116-11.218 15.1-8.25 17.576zm24.633 28.008c0 1.042-.538 1.887-1.201 1.887s-1.201-.845-1.201-1.888c0-1.042.538-1.887 1.201-1.887s1.201.845 1.201 1.888zm22.223 0c0 1.042.537 1.887 1.2 1.887.664 0 1.202-.845 1.202-1.888 0-1.042-.538-1.887-1.201-1.887-.664 0-1.201.845-1.201 1.888zm-8.509 12.268c-2.002 1.678-4.705.839-5.405 0 .2 1.049.96 2.517 2.802 2.517s2.503-1.678 2.603-2.517z"/><path fill-rule="evenodd" clip-rule="evenodd" d="M33.905 93.798c.083-.395.457-.646.835-.559l7.073 1.632c.378.087.617.478.534.874-.084.396-.457.646-.835.56l-7.073-1.632c-.378-.087-.617-.479-.534-.875z"/><path d="M37.975 111.218c-13.934.168-24.157-13.282-27.527-20.029-.5-1.001-.901-1.153-1.202-.943-.48.335-.133 1.013 0 1.363 1.682 4.11 3.971 7.585 4.905 8.808-3.283 5.705-4.37 11.395-4.504 13.527 5.445-5.62 10.944-5.348 13.013-4.509 16.216 8.808 25.225 2.622 30.33 0 4.084-2.097 10.444 1.993 13.113 4.299-.32-5.201-3.003-10.905-4.304-13.107 2.102-2.936 3.804-6.501 4.705-8.284.72-1.426.5-1.992.3-2.097-.48-.252-1.068.524-1.301.943-1.502 2.622-10.11 19.819-27.528 20.029z"/></g><defs><clipPath id="clip0_6050_30066"><path fill="#fff" d="M0 0h79v114H0z"/></clipPath></defs></svg>