<svg width="84" height="115" fill="none" xmlns="http://www.w3.org/2000/svg"><path fill-rule="evenodd" clip-rule="evenodd" d="M8.003 67.482c-1.043.568-2.05.538-2.422.452-1.043 0-.438 4.27-.056 6.966l.056.399c.298 2.119.994 2.778 1.304 2.842h1.552c.2 0 .207.173.187.259 0 7.184 2.297 9.496 5.091 11.37 1.863.603 5.899 1.744 14.033.97 7.016-.97 9.305-6.849 9.686-9.627.249-2.132.745-4.07 2.546-4.264 1.8.194 2.337 2.132 2.586 4.264.381 2.778 2.67 8.657 9.686 9.626 8.134.775 12.17-.366 14.033-.969 2.794-1.873 5.091-4.186 5.091-11.37-.02-.086-.012-.259.186-.259h1.553c.31-.064 1.006-.723 1.304-2.842l.055-.394.001-.005c.382-2.696.987-6.966-.056-6.966-.373.086-1.379.116-2.422-.452-1.304-.71-12.667-2.91-23.408-.065-1.139.302-3.291 1.266-4.036 2.455-.746 1.189-3.372 1.615-4.573 1.68-1.2-.065-3.787-.491-4.532-1.68-.746-1.189-2.898-2.153-4.037-2.455-10.741-2.845-22.104-.646-23.408.065zm3.912 7.882c0-2.57 2.001-4.652 4.47-4.652h11.651c3.623 0 6.537 3.1 6.456 6.87l-.04 1.837c-.101 4.72-3.795 8.5-8.333 8.525l-6.587.038c-4.2.024-7.617-3.512-7.617-7.882v-4.736zm56.17 0c0-2.57-2.001-4.652-4.47-4.652H51.964c-3.623 0-6.537 3.1-6.456 6.87l.04 1.837c.101 4.72 3.795 8.5 8.334 8.525l6.586.038c4.2.024 7.617-3.512 7.617-7.882v-4.736z" fill="#6AD2FF"/><path d="M.527 36.74L6.2 65c.928-.308 5.844-.942 8.186-1.22 0 0-.026-2.184-.129-7.322-.103-5.139 2.385-7.837 5.092-8.993-.928 2.21.387 6.916 1.16 8.992C23.55 50.19 32.905 45.11 37.202 43.356c-3.713 4.676-3.395 12.867-2.772 16.378 13.664-10.483 26.75-13.446 31.583-13.617l-.451 17.534c2.371-.257 6.488.321 8.25.642l5.22-26.783c-1.134.565-3.222 1.13-10.054 2.376-9.346 1.542-17.317 4.775-19.401 6.23 3.094-3.404 15.533-7.065 21.592-8.092 4.847-.822 10.055-2.248 10.957-3.02 1.547-.962 3.3-5.96 0-10.276-6.896-8.735-21.27-10.79-30.358-13.103-7.27-1.85-13.213-5.18-15.275-6.615 4.64 4.881 14.738 8.5 19.207 9.699C36.673 12.448 29.123 3.96 27.727 0c-6.445 4.265-3.545 13.467-1.29 17.535-3.248-2.775-3.93-8.564-3.866-11.112-3.404 5.652-.645 12.675 1.16 15.48-3.404-.515-5.672-4.411-6.381-6.295-.473.214-2.514 1.464-6.897 4.753-4.383 3.288-5.865 7.878-6.059 9.762-1.237-5.754 7.692-13.188 12.311-16.185-1.933.75-7.103 3.391-12.31 7.964C-.814 26.475-.312 33.271.526 36.74zm29.437 40.058c0 .992-.538 1.797-1.201 1.797-.664 0-1.201-.805-1.201-1.797 0-.993.537-1.798 1.2-1.798.664 0 1.202.805 1.202 1.798zm22.223 0c0 .992.537 1.797 1.2 1.797.664 0 1.202-.805 1.202-1.797 0-.993-.538-1.798-1.201-1.798-.664 0-1.201.805-1.201 1.798zm-8.509 11.684c-2.002 1.598-4.705.799-5.405 0 .2.999.96 2.397 2.802 2.397s2.503-1.598 2.603-2.397z" fill="#754FFE"/><path fill-rule="evenodd" clip-rule="evenodd" d="M36.905 95.76a.7.7 0 01.835-.532l7.073 1.553a.7.7 0 11-.301 1.366l-7.073-1.554a.7.7 0 01-.534-.833z" fill="#754FFE"/><path d="M40.975 112.35c-13.934.16-24.157-12.65-27.527-19.074-.5-.954-.901-1.099-1.202-.9-.48.32-.133.966 0 1.3 1.682 3.914 3.971 7.223 4.905 8.388-3.283 5.433-4.37 10.852-4.504 12.883 5.445-5.353 10.944-5.093 13.013-4.294 16.216 8.388 25.225 2.496 30.33 0 4.084-1.998 10.444 1.897 13.113 4.094-.32-4.953-3.003-10.386-4.304-12.483 2.102-2.797 3.804-6.192 4.705-7.89.72-1.358.5-1.897.3-1.997-.48-.24-1.068.5-1.301.899C67 95.772 58.393 112.15 40.975 112.35z" fill="#754FFE"/></svg>